HIERARCHY
ROOT Root
{
  OFFSET 0.0 0.0 0.0
  CHANNELS 6 Xposition Yposition Zposition Zrotation Yrotation Xrotation
  JOINT Hips
  {
    OFFSET 0.0 100.0 0.0
    CHANNELS 6 Xposition Yposition Zposition Zrotation Yrotation Xrotation
    JOINT Spine1
    {
      OFFSET -0.013727 5.003763 -0.053727
      CHANNELS 3 Zrotation Yrotation Xrotation
      JOINT Spine2
      {
        OFFSET -0.0 7.125301 -0.029825
        CHANNELS 3 Zrotation Yrotation Xrotation
        JOINT Chest
        {
          OFFSET -1e-06 7.550063 -0.815971
          CHANNELS 3 Zrotation Yrotation Xrotation
          JOINT Neck1
          {
            OFFSET -0.181677 26.311295 -0.553348
            CHANNELS 3 Zrotation Yrotation Xrotation
            JOINT Neck2
            {
              OFFSET -3e-06 7.709397 2.302585
              CHANNELS 3 Zrotation Yrotation Xrotation
              JOINT Head
              {
                OFFSET -5e-06 6.128916 1.953709
                CHANNELS 3 Zrotation Yrotation Xrotation
                JOINT HeadEnd
                {
                  OFFSET 0.003598 16.065403 -1.835379
                  CHANNELS 3 Zrotation Yrotation Xrotation
                }
                JOINT Jaw
                {
                  OFFSET 0.002637 0.475592 3.094941
                  CHANNELS 3 Zrotation Yrotation Xrotation
                }
                JOINT LeftEye
                {
                  OFFSET 3.206381 5.380205 7.586883
                  CHANNELS 3 Zrotation Yrotation Xrotation
                }
                JOINT RightEye
                {
                  OFFSET -3.22244 5.361869 7.558234
                  CHANNELS 3 Zrotation Yrotation Xrotation
                }
              }
            }
          }
          JOINT LeftShoulder
          {
            OFFSET 1.621652 23.237164 5.113413
            CHANNELS 3 Zrotation Yrotation Xrotation
            JOINT LeftArm
            {
              OFFSET 14.919846 2e-06 -5.502326
              CHANNELS 3 Zrotation Yrotation Xrotation
              JOINT LeftForeArm
              {
                OFFSET 28.739307 0.0 -0.002588
                CHANNELS 3 Zrotation Yrotation Xrotation
                JOINT LeftHand
                {
                  OFFSET 27.093981 -1e-06 0.002609
                  CHANNELS 3 Zrotation Yrotation Xrotation
                  JOINT LeftHandThumb1
                  {
                    OFFSET 2.276482 -1.392045 3.191413
                    CHANNELS 3 Zrotation Yrotation Xrotation
                    JOINT LeftHandThumb2
                    {
                      OFFSET 4.012836 -1.828127 1.641654
                      CHANNELS 3 Zrotation Yrotation Xrotation
                      JOINT LeftHandThumb3
                      {
                        OFFSET 2.798515 0.0 -3e-06
                        CHANNELS 3 Zrotation Yrotation Xrotation
                        JOINT LeftHandThumbEnd
                        {
                          OFFSET 3.180793 -4e-06 4e-06
                          CHANNELS 3 Zrotation Yrotation Xrotation
                        }
                      }
                    }
                  }
                  JOINT LeftHandIndex1
                  {
                    OFFSET 3.247555 -0.531998 2.296169
                    CHANNELS 3 Zrotation Yrotation Xrotation
                    JOINT LeftHandIndex2
                    {
                      OFFSET 6.364578 0.01206 0.1786
                      CHANNELS 3 Zrotation Yrotation Xrotation
                      JOINT LeftHandIndex3
                      {
                        OFFSET 3.662364 0.0 0.0
                        CHANNELS 3 Zrotation Yrotation Xrotation
                        JOINT LeftHandIndex4
                        {
                          OFFSET 2.329242 4e-06 4e-06
                          CHANNELS 3 Zrotation Yrotation Xrotation
                          JOINT LeftHandIndexEnd
                          {
                            OFFSET 2.759615 -0.180537 -0.113024
                            CHANNELS 3 Zrotation Yrotation Xrotation
                          }
                        }
                      }
                    }
                  }
                  JOINT LeftHandMiddle1
                  {
                    OFFSET 3.163495 0.240981 1.000332
                    CHANNELS 3 Zrotation Yrotation Xrotation
                    JOINT LeftHandMiddle2
                    {
                      OFFSET 6.19078 -0.259278 -1.002548
                      CHANNELS 3 Zrotation Yrotation Xrotation
                      JOINT LeftHandMiddle3
                      {
                        OFFSET 4.35652 -4e-06 -1e-06
                        CHANNELS 3 Zrotation Yrotation Xrotation
                        JOINT LeftHandMiddle4
                        {
                          OFFSET 2.996877 -8e-06 0.0
                          CHANNELS 3 Zrotation Yrotation Xrotation
                          JOINT LeftHandMiddleEnd
                          {
                            OFFSET 2.304287 -0.294569 -0.031741
                            CHANNELS 3 Zrotation Yrotation Xrotation
                          }
                        }
                      }
                    }
                  }
                  JOINT LeftHandRing1
                  {
                    OFFSET 2.882643 -0.053652 -0.322543
                    CHANNELS 3 Zrotation Yrotation Xrotation
                    JOINT LeftHandRing2
                    {
                      OFFSET 5.854541 -0.486202 -1.373841
                      CHANNELS 3 Zrotation Yrotation Xrotation
                      JOINT LeftHandRing3
                      {
                        OFFSET 4.350578 0.0 3e-06
                        CHANNELS 3 Zrotation Yrotation Xrotation
                        JOINT LeftHandRing4
                        {
                          OFFSET 2.651321 7e-06 2e-06
                          CHANNELS 3 Zrotation Yrotation Xrotation
                          JOINT LeftHandRingEnd
                          {
                            OFFSET 1.936105 0.077687 -7.1e-05
                            CHANNELS 3 Zrotation Yrotation Xrotation
                          }
                        }
                      }
                    }
                  }
                  JOINT LeftHandPinky1
                  {
                    OFFSET 2.8655 -0.310005 -1.600378
                    CHANNELS 3 Zrotation Yrotation Xrotation
                    JOINT LeftHandPinky2
                    {
                      OFFSET 5.087849 -1.331141 -1.77123
                      CHANNELS 3 Zrotation Yrotation Xrotation
                      JOINT LeftHandPinky3
                      {
                        OFFSET 3.070974 4e-06 0.0
                        CHANNELS 3 Zrotation Yrotation Xrotation
                        JOINT LeftHandPinky4
                        {
                          OFFSET 1.549672 0.0 1e-06
                          CHANNELS 3 Zrotation Yrotation Xrotation
                          JOINT LeftHandPinkyEnd
                          {
                            OFFSET 1.944893 -0.157802 0.057219
                            CHANNELS 3 Zrotation Yrotation Xrotation
                          }
                        }
                      }
                    }
                  }
                }
              }
            }
          }
          JOINT RightShoulder
          {
            OFFSET -1.380118 23.180309 5.214158
            CHANNELS 3 Zrotation Yrotation Xrotation
            JOINT RightArm
            {
              OFFSET -15.037196 1.2e-05 -5.545604
              CHANNELS 3 Zrotation Yrotation Xrotation
              JOINT RightForeArm
              {
                OFFSET -28.736639 2e-06 -0.002597
                CHANNELS 3 Zrotation Yrotation Xrotation
                JOINT RightHand
                {
                  OFFSET -27.133619 -0.0 0.002613
                  CHANNELS 3 Zrotation Yrotation Xrotation
                  JOINT RightHandThumb1
                  {
                    OFFSET -2.274032 -1.383988 3.163127
                    CHANNELS 3 Zrotation Yrotation Xrotation
                    JOINT RightHandThumb2
                    {
                      OFFSET -4.011429 -1.827466 1.640914
                      CHANNELS 3 Zrotation Yrotation Xrotation
                      JOINT RightHandThumb3
                      {
                        OFFSET -2.794935 -4e-06 -3e-06
                        CHANNELS 3 Zrotation Yrotation Xrotation
                        JOINT RightHandThumbEnd
                        {
                          OFFSET -3.183852 4e-06 1e-06
                          CHANNELS 3 Zrotation Yrotation Xrotation
                        }
                      }
                    }
                  }
                  JOINT RightHandIndex1
                  {
                    OFFSET -3.253266 -0.520057 2.282866
                    CHANNELS 3 Zrotation Yrotation Xrotation
                    JOINT RightHandIndex2
                    {
                      OFFSET -6.341917 0.012471 0.178266
                      CHANNELS 3 Zrotation Yrotation Xrotation
                      JOINT RightHandIndex3
                      {
                        OFFSET -3.654871 -8e-06 -0.0
                        CHANNELS 3 Zrotation Yrotation Xrotation
                        JOINT RightHandIndex4
                        {
                          OFFSET -2.327586 0.0 1e-06
                          CHANNELS 3 Zrotation Yrotation Xrotation
                          JOINT RightHandIndexEnd
                          {
                            OFFSET -2.76179 -0.180656 -0.113078
                            CHANNELS 3 Zrotation Yrotation Xrotation
                          }
                        }
                      }
                    }
                  }
                  JOINT RightHandMiddle1
                  {
                    OFFSET -3.168106 0.246593 1.00103
                    CHANNELS 3 Zrotation Yrotation Xrotation
                    JOINT RightHandMiddle2
                    {
                      OFFSET -6.180828 -0.258836 -1.000895
                      CHANNELS 3 Zrotation Yrotation Xrotation
                      JOINT RightHandMiddle3
                      {
                        OFFSET -4.348901 0.0 -0.0
                        CHANNELS 3 Zrotation Yrotation Xrotation
                        JOINT RightHandMiddle4
                        {
                          OFFSET -3.00024 -4e-06 -2e-06
                          CHANNELS 3 Zrotation Yrotation Xrotation
                          JOINT RightHandMiddleEnd
                          {
                            OFFSET -2.30252 -0.29437 -0.031706
                            CHANNELS 3 Zrotation Yrotation Xrotation
                          }
                        }
                      }
                    }
                  }
                  JOINT RightHandRing1
                  {
                    OFFSET -2.88569 -0.067952 -0.308858
                    CHANNELS 3 Zrotation Yrotation Xrotation
                    JOINT RightHandRing2
                    {
                      OFFSET -5.854198 -0.48613 -1.373731
                      CHANNELS 3 Zrotation Yrotation Xrotation
                      JOINT RightHandRing3
                      {
                        OFFSET -4.33881 -4e-06 -0.0
                        CHANNELS 3 Zrotation Yrotation Xrotation
                        JOINT RightHandRing4
                        {
                          OFFSET -2.654903 -4e-06 4e-06
                          CHANNELS 3 Zrotation Yrotation Xrotation
                          JOINT RightHandRingEnd
                          {
                            OFFSET -1.933568 0.077527 -5.2e-05
                            CHANNELS 3 Zrotation Yrotation Xrotation
                          }
                        }
                      }
                    }
                  }
                  JOINT RightHandPinky1
                  {
                    OFFSET -2.866425 -0.342796 -1.584145
                    CHANNELS 3 Zrotation Yrotation Xrotation
                    JOINT RightHandPinky2
                    {
                      OFFSET -5.091371 -1.332055 -1.772385
                      CHANNELS 3 Zrotation Yrotation Xrotation
                      JOINT RightHandPinky3
                      {
                        OFFSET -3.062664 -4e-06 1e-06
                        CHANNELS 3 Zrotation Yrotation Xrotation
                        JOINT RightHandPinky4
                        {
                          OFFSET -1.546529 4e-06 -2e-06
                          CHANNELS 3 Zrotation Yrotation Xrotation
                          JOINT RightHandPinkyEnd
                          {
                            OFFSET -1.945119 -0.157718 0.057211
                            CHANNELS 3 Zrotation Yrotation Xrotation
                          }
                        }
                      }
                    }
                  }
                }
              }
            }
          }
        }
      }
    }
    JOINT LeftLeg
    {
      OFFSET 10.043214 -8.434526 2.595655
      CHANNELS 3 Zrotation Yrotation Xrotation
      JOINT LeftShin
      {
        OFFSET -1e-06 -43.221752 -0.802913
        CHANNELS 3 Zrotation Yrotation Xrotation
        JOINT LeftFoot
        {
          OFFSET 1e-06 -42.155094 -3.481523
          CHANNELS 3 Zrotation Yrotation Xrotation
          JOINT LeftToeBase
          {
            OFFSET 0.0 -5.059472 13.231529
            CHANNELS 3 Zrotation Yrotation Xrotation
            JOINT LeftToeEnd
            {
              OFFSET -0.009607 -1.647619 6.513017
              CHANNELS 3 Zrotation Yrotation Xrotation
            }
          }
        }
      }
    }
    JOINT RightLeg
    {
      OFFSET -10.047278 -8.29526 2.620317
      CHANNELS 3 Zrotation Yrotation Xrotation
      JOINT RightShin
      {
        OFFSET 1e-06 -43.362206 -0.805556
        CHANNELS 3 Zrotation Yrotation Xrotation
        JOINT RightFoot
        {
          OFFSET 2e-06 -42.117393 -3.478398
          CHANNELS 3 Zrotation Yrotation Xrotation
          JOINT RightToeBase
          {
            OFFSET -0.0 -5.079609 13.284196
            CHANNELS 3 Zrotation Yrotation Xrotation
            JOINT RightToeEnd
            {
              OFFSET 0.009532 -1.634378 6.460591
              CHANNELS 3 Zrotation Yrotation Xrotation
            }
          }
        }
      }
    }
  }
}
MOTION
Frames: 4
Frame Time: 0.03333333333333333
0.0 0.0 0.0 0.0 -0.0 0.0 11.74358 68.437065 7.678709 -6.974347 18.215801 -7.109632 2.831111 4.493508 8.31645 0.498607 5.649522 -1.785769 0.281273 7.229291 17.145185 -1.952278 3.294266 21.045406 0.255269 9.977132 -3.8418 -6.133324 9.813745 -11.677677 7.7e-05 -2.2e-05 5e-06 -0.099134 0.192023 -0.06733 0.645187 -3.585752 -10.94245 -0.880244 4.007841 -11.098347 12.72272 5.566708 24.53964 -78.761108 26.217955 -12.062696 -179.595535 -43.472717 179.50386 15.71749 -16.422871 0.683215 -5.88211 9.861292 0.70259 -10.936877 -0.360577 7.156211 0.0 8.774831 -3e-06 -15.92974 18.32415 6.279267 -1.844035 2.498508 -2.507281 -10.163604 4.678947 4.621113 -20.976038 -4e-06 2e-06 -21.226301 2.451697 -3.594003 -0.0 -6e-06 -0.0 -1.362683 2.240801 -0.746325 -21.33493 0.584907 3.008327 -13.821223 -2e-06 3e-06 -23.887184 -0.249079 -0.839481 -59.489079 1.871549 -2.000419 -0.294024 1.679688 0.833256 -14.21822 0.093212 1.30058 -34.212074 -0.287565 0.96717 -20.033228 0.964538 1.212844 1e-06 -1e-06 2e-06 -3.440389 0.788233 0.501655 -15.928201 -3.167312 2.999711 -6.338831 -2e-06 2e-06 -18.123459 3.648184 -4.905674 -4e-06 -0.0 -2e-06 -15.000634 10.946606 21.281315 80.283531 -23.810484 3.113909 -8.346017 75.110138 -5.202537 -19.76442 -11.736047 19.747984 2.243545 -5.255039 -3.180159 14.282902 -0.826596 6.952507 -4e-06 -12.690612 1e-06 16.632496 -16.347656 3.12555 1.665668 -1.955923 -2.878301 4.727804 -4.170592 4.993926 11.020536 5e-06 1e-06 12.10906 -3.735718 -2.866786 0.0 1e-06 2e-06 1.291986 -1.92855 -1.49809 14.800138 0.567469 3.865609 14.242582 -1.341736 -6.660662 19.631979 0.143929 -0.648245 49.923084 -1.096702 -5.942805 0.353028 -1.511152 -0.03194 20.222805 3.684314 2.316632 18.787287 5e-06 -1e-06 10.751636 -0.479868 1.397907 0.0 1e-06 0.0 3.27381 0.305948 -0.580111 21.486834 11.830385 2.266135 8.162934 2e-06 0.0 18.399099 -3.798987 -4.94058 3e-06 -0.0 -2e-06 10.284642 22.796774 -70.516487 0.371875 -0.200235 96.68306 -5.319488 21.682198 -7.053673 1.585687 -2.038851 1.436667 0.0 -0.0 3e-06 -19.564987 20.065065 16.236025 -0.130518 4.559398 71.488022 37.456577 27.274849 27.400818 -1.461405 0.883181 -2.090444 -1e-06 0.0 -1e-06
0.0 0.0 0.0 0.0 -0.0 0.0 13.922349 68.236908 10.75432 -7.316095 35.90221 -6.213478 2.315943 3.490326 8.753485 0.502498 4.11572 -1.709946 -0.13156 5.878449 19.351507 3.636033 0.705753 19.13541 -0.930067 7.504883 -4.220768 -6.113068 6.880643 -14.171773 7.8e-05 -2.2e-05 7e-06 -0.017479 0.004911 -0.03393 0.701087 -3.763733 -10.829209 -0.767011 3.796361 -10.902516 13.202295 -1.289426 23.648104 -80.356033 16.801746 -12.668922 -178.382111 -47.208778 179.817566 22.386841 -19.284155 -3.122127 -5.882108 9.861291 0.702592 -10.936875 -0.360574 7.156209 -1e-06 8.77483 -2e-06 -14.880697 18.162979 6.913712 -1.844032 2.498506 -2.50728 -10.163601 4.678948 4.621109 -20.976028 2e-06 1e-06 -21.226292 2.451701 -3.594003 0.0 -5e-06 -1e-06 -1.362681 2.240801 -0.746325 -21.334917 0.584912 3.008323 -13.821215 1e-06 2e-06 -23.887175 -0.249076 -0.839485 -59.615143 1.907926 -1.602776 -0.294025 1.679686 0.833255 -14.218211 0.093217 1.300582 -34.212055 -0.287556 0.967169 -20.033216 0.964538 1.212841 0.0 -0.0 1e-06 -3.44039 0.788233 0.501659 -15.928189 -3.167308 2.999709 -6.338825 1e-06 1e-06 -18.123453 3.648186 -4.905674 -4e-06 -1e-06 -2e-06 -13.537068 9.859773 20.681898 89.815811 -16.351585 5.840738 -2.324673 57.170486 -1.15238 -25.588287 -4.32351 9.236341 2.243542 -5.255039 -3.180157 14.282894 -0.826597 6.952506 -1e-06 -12.690609 1e-06 17.131254 -16.735819 2.196283 1.665667 -1.955923 -2.8783 4.727801 -4.17059 4.993925 11.020528 2e-06 0.0 12.109056 -3.735719 -2.866786 -1e-06 2e-06 2e-06 1.291986 -1.928551 -1.49809 14.800132 0.567465 3.865609 14.242577 -1.341739 -6.66066 19.631971 0.143924 -0.648247 49.378803 -0.702472 -6.187836 0.353029 -1.511152 -0.03194 20.222797 3.684309 2.316631 18.787279 1e-06 -2e-06 10.751629 -0.47987 1.397905 0.0 -0.0 0.0 3.273808 0.305946 -0.580111 21.486816 11.830376 2.266134 8.16293 -0.0 -0.0 18.399088 -3.798991 -4.940577 2e-06 0.0 -1e-06 4.13507 9.868345 -74.630234 0.465418 -0.142055 97.801224 -3.477661 19.304489 -9.092163 1.610045 -2.178105 1.624553 0.0 -0.0 2e-06 -13.519747 11.603606 17.14105 -0.009671 3.586859 82.003906 37.194126 30.094439 26.807457 -1.342246 0.946812 -1.370752 0.0 -0.0 0.0
0.0 0.0 0.0 0.0 -0.0 0.0 16.548655 67.643082 12.696711 -5.654541 38.911827 -5.314595 2.193928 3.302422 10.801292 0.421121 4.414493 -0.919608 -0.624077 6.847967 21.4641 3.08301 2.019601 17.26012 -1.061751 6.686819 -4.045625 -6.210808 6.441293 -16.772161 7.8e-05 -2.1e-05 5e-06 0.005192 -0.036199 0.003009 0.70222 -3.773894 -10.527698 -0.721004 3.715941 -10.590325 12.636037 -2.250062 23.532227 -83.434174 13.035899 -13.49719 -178.574783 -46.614635 -179.88678 29.228842 -24.590385 -7.263824 -5.882106 9.861286 0.702589 -10.936872 -0.360575 7.156205 1e-06 8.774824 -1e-06 -14.226235 17.599283 6.836826 -1.844034 2.498503 -2.507278 -10.1636 4.678945 4.621109 -20.976023 -4e-06 1e-06 -21.226286 2.451693 -3.593999 0.0 -5e-06 -0.0 -1.362682 2.240797 -0.746323 -21.334917 0.584909 3.008324 -13.821213 -3e-06 2e-06 -23.887171 -0.24908 -0.839482 -58.471577 1.950591 -1.84032 -0.294025 1.679687 0.833256 -14.218212 0.093215 1.300581 -34.212051 -0.287564 0.967166 -20.033216 0.964537 1.212842 -0.0 0.0 1e-06 -3.440389 0.788233 0.501656 -15.928189 -3.16731 2.999707 -6.338826 -2e-06 0.0 -18.123447 3.64818 -4.90567 -5e-06 -0.0 -3e-06 -17.440849 14.508273 19.294437 92.21386 -9.060461 13.622953 -1.503118 52.677338 -0.5106 -24.828596 -3.486571 4.225728 2.24354 -5.255035 -3.180156 14.282884 -0.826594 6.9525 -2e-06 -12.690601 -0.0 17.173935 -16.532942 1.392577 1.665667 -1.95592 -2.878298 4.727796 -4.170586 4.993921 11.020522 3e-06 -0.0 12.109048 -3.735714 -2.866781 -0.0 1e-06 1e-06 1.291986 -1.928549 -1.498088 14.800123 0.567468 3.865607 14.242566 -1.341737 -6.660654 19.631958 0.143925 -0.648244 48.927414 -0.842157 -6.481579 0.353029 -1.51115 -0.03194 20.222786 3.684307 2.316631 18.78727 4e-06 -0.0 10.751627 -0.479869 1.397906 1e-06 -1e-06 -0.0 3.273804 0.305947 -0.58011 21.486803 11.830368 2.266133 8.162925 1e-06 -0.0 18.399076 -3.798985 -4.940573 3e-06 0.0 -1e-06 1.222664 7.608427 -73.371613 0.351339 -0.143125 100.188187 -4.270946 18.816801 -13.662926 1.647039 -2.058486 1.793903 0.0 -0.0 2e-06 -12.376052 16.008539 8.324855 0.337629 2.852717 97.819122 29.877064 30.836248 16.916187 -1.753796 0.843197 -1.816554 -0.0 0.0 -1e-06
0.0 0.0 0.0 0.0 -0.0 0.0 18.903198 67.327034 14.084317 -3.011309 38.515457 -4.555785 1.903433 3.39695 13.091083 0.379271 4.705421 -0.060748 -1.45408 7.691101 23.385778 1.401166 3.411757 16.152069 -1.125318 6.475284 -3.962504 -6.592216 6.430897 -18.778967 7.6e-05 -2.3e-05 4e-06 0.033496 -0.063278 0.008184 0.703892 -3.769797 -10.35076 -0.662962 3.65412 -10.415658 12.593211 -2.149819 23.170958 -86.838783 12.384462 -12.472932 -179.980484 -45.14954 -179.45607 35.761677 -30.497868 -14.466831 -5.882109 9.861292 0.702588 -10.936877 -0.360577 7.156209 -0.0 8.77483 -3e-06 -14.110244 17.101999 6.308584 -1.844033 2.498506 -2.507279 -10.163604 4.678946 4.621111 -20.976034 -3e-06 4e-06 -21.226297 2.451698 -3.594 1e-06 -6e-06 -1e-06 -1.362684 2.240798 -0.746324 -21.334929 0.584909 3.008325 -13.821218 -2e-06 2e-06 -23.887182 -0.249077 -0.839482 -57.756763 1.971442 -2.043809 -0.294024 1.679688 0.833255 -14.218217 0.093214 1.300583 -34.212067 -0.287563 0.967175 -20.033226 0.964538 1.212845 1e-06 -1e-06 0.0 -3.44039 0.788234 0.501656 -15.928192 -3.167312 2.99971 -6.338829 -1e-06 3e-06 -18.123457 3.648184 -4.905672 -4e-06 -0.0 -1e-06 -22.128742 18.287769 17.963306 87.904785 -3.650987 22.530939 -0.179227 57.211952 0.10923 -21.37648 -2.045272 4.167833 2.243542 -5.255038 -3.180158 14.282889 -0.826595 6.952502 -2e-06 -12.690609 1e-06 17.016317 -16.255428 1.328853 1.665666 -1.955922 -2.878299 4.727798 -4.170588 4.993924 11.020526 2e-06 -2e-06 12.10905 -3.735717 -2.866786 0.0 0.0 0.0 1.291986 -1.92855 -1.49809 14.800127 0.567467 3.865605 14.242571 -1.341737 -6.660661 19.631966 0.143927 -0.648247 49.098671 -1.220552 -6.525639 0.353029 -1.511151 -0.03194 20.222788 3.68431 2.316628 18.78727 4e-06 -3e-06 10.751625 -0.479869 1.397905 -1e-06 -1e-06 1e-06 3.273807 0.305947 -0.58011 21.486813 11.830378 2.266131 8.162926 1e-06 -1e-06 18.39908 -3.798986 -4.940577 3e-06 0.0 -1e-06 -1.536187 7.534545 -70.703285 0.213752 -0.149378 102.300743 -5.413869 20.00836 -16.304375 1.643691 -1.921823 1.490441 0.0 -0.0 1e-06 -14.314756 22.385162 -3.069448 0.648622 2.134825 113.405273 22.74225 25.179728 6.080887 -2.154588 0.805552 -2.741827 0.0 0.0 -2e-06
